# Blender 4.2.1 LTS
# www.blender.org
mtllib ball_4.mtl
o Sphere.003
v 0.000000 0.707107 -0.707107
v 0.191342 0.923880 -0.331414
v 0.353553 0.707107 -0.612372
v 0.461940 0.382683 -0.800103
v 0.500000 0.000000 -0.866025
v 0.461940 -0.382683 -0.800103
v 0.353553 -0.707107 -0.612372
v 0.191342 -0.923880 -0.331414
v 0.331414 0.923880 -0.191342
v 0.612372 0.707107 -0.353553
v 0.800103 0.382683 -0.461940
v 0.866025 0.000000 -0.500000
v 0.800103 -0.382683 -0.461940
v 0.612372 -0.707107 -0.353553
v 0.331414 -0.923880 -0.191342
v 0.382683 0.923880 0.000000
v 0.707107 0.707107 0.000000
v 0.923879 0.382683 0.000000
v 1.000000 0.000000 0.000000
v 0.923879 -0.382683 0.000000
v 0.707107 -0.707107 0.000000
v 0.382683 -0.923880 0.000000
v 0.331414 0.923880 0.191342
v 0.612372 0.707107 0.353553
v 0.800103 0.382683 0.461940
v 0.866025 0.000000 0.500000
v 0.800103 -0.382683 0.461940
v 0.612372 -0.707107 0.353553
v 0.331414 -0.923880 0.191342
v 0.191342 0.923880 0.331414
v 0.353553 0.707107 0.612372
v 0.461940 0.382683 0.800103
v 0.500000 0.000000 0.866025
v 0.461940 -0.382683 0.800103
v 0.353553 -0.707107 0.612372
v 0.191342 -0.923880 0.331414
v 0.000000 0.923880 0.382683
v -0.000000 0.707107 0.707107
v 0.000000 0.382683 0.923879
v 0.000000 0.000000 1.000000
v 0.000000 -0.382683 0.923879
v -0.000000 -0.707107 0.707107
v 0.000000 -0.923880 0.382683
v -0.191342 0.923880 0.331414
v -0.353553 0.707107 0.612372
v -0.461940 0.382683 0.800103
v -0.500000 0.000000 0.866025
v -0.461940 -0.382683 0.800103
v -0.353553 -0.707107 0.612372
v -0.191342 -0.923880 0.331414
v 0.000000 1.000000 0.000000
v -0.331414 0.923880 0.191342
v -0.612372 0.707107 0.353553
v -0.800103 0.382683 0.461940
v -0.866025 0.000000 0.500000
v -0.800103 -0.382683 0.461940
v -0.612372 -0.707107 0.353553
v -0.331414 -0.923880 0.191342
v 0.000000 -1.000000 0.000000
v -0.382683 0.923880 0.000000
v -0.707107 0.707107 -0.000000
v -0.923880 0.382683 0.000000
v -1.000000 0.000000 0.000000
v -0.923880 -0.382683 0.000000
v -0.707107 -0.707107 -0.000000
v -0.382683 -0.923880 0.000000
v -0.331414 0.923880 -0.191342
v -0.612372 0.707107 -0.353553
v -0.800103 0.382683 -0.461940
v -0.866025 0.000000 -0.500000
v -0.800103 -0.382683 -0.461940
v -0.612372 -0.707107 -0.353553
v -0.331414 -0.923880 -0.191342
v -0.191342 0.923880 -0.331414
v -0.353553 0.707107 -0.612372
v -0.461940 0.382683 -0.800103
v -0.500000 0.000000 -0.866025
v -0.461940 -0.382683 -0.800103
v -0.353553 -0.707107 -0.612372
v -0.191342 -0.923880 -0.331414
v -0.000000 0.923880 -0.382683
v -0.000000 0.382683 -0.923880
v 0.000000 0.000000 -1.000000
v -0.000000 -0.382683 -0.923880
v 0.000000 -0.707107 -0.707107
v -0.000000 -0.923880 -0.382683
vn -0.0000 0.6913 -0.7226
vn 0.2049 0.9122 -0.3548
vn 0.3613 0.6913 -0.6258
vn 0.4642 0.3718 -0.8040
vn 0.5000 -0.0000 -0.8660
vn 0.4642 -0.3718 -0.8040
vn 0.3613 -0.6913 -0.6258
vn 0.2049 -0.9122 -0.3548
vn 0.3548 0.9122 -0.2049
vn 0.6258 0.6913 -0.3613
vn 0.8040 0.3718 -0.4642
vn 0.8660 -0.0000 -0.5000
vn 0.8040 -0.3718 -0.4642
vn 0.6258 -0.6913 -0.3613
vn 0.3548 -0.9122 -0.2049
vn 0.4097 0.9122 -0.0000
vn 0.7226 0.6913 -0.0000
vn 0.9283 0.3718 -0.0000
vn 1.0000 -0.0000 -0.0000
vn 0.9283 -0.3718 -0.0000
vn 0.7226 -0.6913 -0.0000
vn 0.4097 -0.9122 -0.0000
vn 0.3548 0.9122 0.2049
vn 0.6258 0.6913 0.3613
vn 0.8040 0.3718 0.4642
vn 0.8660 -0.0000 0.5000
vn 0.8040 -0.3718 0.4642
vn 0.6258 -0.6913 0.3613
vn 0.3548 -0.9122 0.2049
vn 0.2049 0.9122 0.3548
vn 0.3613 0.6913 0.6258
vn 0.4642 0.3718 0.8040
vn 0.5000 -0.0000 0.8660
vn 0.4642 -0.3718 0.8040
vn 0.3613 -0.6913 0.6258
vn 0.2049 -0.9122 0.3548
vn -0.0000 0.9122 0.4097
vn -0.0000 0.6913 0.7226
vn -0.0000 0.3718 0.9283
vn -0.0000 -0.0000 1.0000
vn -0.0000 -0.3718 0.9283
vn -0.0000 -0.6913 0.7226
vn -0.0000 -0.9122 0.4097
vn -0.2049 0.9122 0.3548
vn -0.3613 0.6913 0.6258
vn -0.4642 0.3718 0.8040
vn -0.5000 -0.0000 0.8660
vn -0.4642 -0.3718 0.8040
vn -0.3613 -0.6913 0.6258
vn -0.2049 -0.9122 0.3548
vn -0.0000 1.0000 -0.0000
vn -0.3548 0.9122 0.2049
vn -0.6258 0.6913 0.3613
vn -0.8040 0.3718 0.4642
vn -0.8660 -0.0000 0.5000
vn -0.8040 -0.3718 0.4642
vn -0.6258 -0.6913 0.3613
vn -0.3548 -0.9122 0.2049
vn -0.0000 -1.0000 -0.0000
vn -0.4097 0.9122 -0.0000
vn -0.7226 0.6913 -0.0000
vn -0.9283 0.3718 -0.0000
vn -1.0000 -0.0000 -0.0000
vn -0.9283 -0.3718 -0.0000
vn -0.7226 -0.6913 -0.0000
vn -0.4097 -0.9122 -0.0000
vn -0.3548 0.9122 -0.2049
vn -0.6258 0.6913 -0.3613
vn -0.8040 0.3718 -0.4642
vn -0.8660 -0.0000 -0.5000
vn -0.8040 -0.3718 -0.4642
vn -0.6258 -0.6913 -0.3613
vn -0.3548 -0.9122 -0.2049
vn -0.2049 0.9122 -0.3548
vn -0.3613 0.6913 -0.6258
vn -0.4642 0.3718 -0.8040
vn -0.5000 -0.0000 -0.8660
vn -0.4642 -0.3718 -0.8040
vn -0.3613 -0.6913 -0.6258
vn -0.2049 -0.9122 -0.3548
vn -0.0000 0.9122 -0.4097
vn -0.0000 0.3718 -0.9283
vn -0.0000 -0.0000 -1.0000
vn -0.0000 -0.3718 -0.9283
vn -0.0000 -0.6913 -0.7226
vn -0.0000 -0.9122 -0.4097
vt 0.286491 0.555660
vt 0.244825 0.680660
vt 0.203158 0.555660
vt 0.727865 0.107422
vt 0.769531 0.232422
vt 0.686198 0.232422
vt 0.800781 0.226562
vt 0.717448 0.351562
vt 0.717448 0.226562
vt 0.750000 0.500000
vt 0.666667 0.625000
vt 0.666667 0.500000
vt 0.750000 0.875000
vt 0.666667 0.750000
vt 0.750000 0.750000
vt 0.280291 0.401919
vt 0.196957 0.276919
vt 0.280291 0.276919
vt 0.360901 0.504651
vt 0.277567 0.379651
vt 0.360901 0.379651
vt 0.102018 0.832160
vt 0.018685 0.707160
vt 0.102018 0.707160
vt 0.277567 0.629651
vt 0.194234 0.504651
vt 0.277567 0.504651
vt 0.277567 0.879651
vt 0.194234 0.754651
vt 0.277567 0.754651
vt 0.666667 0.250000
vt 0.583333 0.125000
vt 0.666667 0.125000
vt 0.583333 0.375000
vt 0.666667 0.375000
vt 0.583333 0.625000
vt 0.615885 0.736328
vt 0.574219 0.861328
vt 0.532552 0.736328
vt 0.091733 0.337943
vt 0.133399 0.462943
vt 0.050066 0.462943
vt 0.131849 0.512967
vt 0.048516 0.387967
vt 0.131849 0.387967
vt 0.113624 0.276919
vt 0.030291 0.401919
vt 0.030291 0.276919
vt 0.194234 0.379651
vt 0.110901 0.504651
vt 0.110901 0.379651
vt 0.110901 0.629651
vt 0.194234 0.629651
vt 0.119825 0.555660
vt 0.078158 0.680660
vt 0.036491 0.555660
vt 0.584635 0.042969
vt 0.626302 0.167969
vt 0.542969 0.167969
vt 0.634115 0.351562
vt 0.550781 0.226562
vt 0.634115 0.226562
vt 0.651693 0.443359
vt 0.568359 0.318359
vt 0.651693 0.318359
vt 0.583333 0.875000
vt 0.500000 0.750000
vt 0.583333 0.750000
vt 0.875147 0.681791
vt 0.791814 0.556791
vt 0.875147 0.556791
vt 0.961958 0.346383
vt 0.920292 0.471383
vt 0.878625 0.346383
vt 0.388574 0.144168
vt 0.430241 0.269168
vt 0.346908 0.269168
vt 0.372884 0.246900
vt 0.289551 0.371900
vt 0.289551 0.246900
vt 0.362033 0.448844
vt 0.278699 0.573844
vt 0.278699 0.448844
vt 0.500000 0.875000
vt 0.416667 0.750000
vt 0.975910 0.408120
vt 0.892577 0.283120
vt 0.975910 0.283120
vt 0.830192 0.634867
vt 0.746858 0.509867
vt 0.830192 0.509867
vt 0.916018 0.308489
vt 0.957685 0.433489
vt 0.874352 0.433489
vt 0.797640 0.361430
vt 0.714306 0.486430
vt 0.714306 0.361430
vt 0.832119 0.626550
vt 0.748786 0.501550
vt 0.832119 0.501550
vt 0.822818 0.601181
vt 0.739485 0.726181
vt 0.739485 0.601181
vt 0.416667 0.250000
vt 0.333333 0.125000
vt 0.416667 0.125000
vt 0.416667 0.500000
vt 0.333333 0.375000
vt 0.416667 0.375000
vt 0.333333 0.625000
vt 0.416667 0.625000
vt 0.453776 0.775391
vt 0.412109 0.900391
vt 0.370443 0.775391
vt 0.333333 0.750000
vt 0.250000 0.875000
vt 0.250000 0.750000
vt 0.809244 0.408120
vt 0.725910 0.283120
vt 0.809244 0.283120
vt 0.868151 0.672072
vt 0.784818 0.547072
vt 0.868151 0.547072
vt 0.888304 0.629085
vt 0.804970 0.504085
vt 0.888304 0.504085
vt 0.795292 0.346383
vt 0.753625 0.471383
vt 0.711958 0.346383
vt 0.283916 0.063558
vt 0.325582 0.188558
vt 0.242249 0.188558
vt 0.250000 0.250000
vt 0.333333 0.250000
vt 0.250000 0.500000
vt 0.333333 0.500000
vt 0.166667 0.125000
vt 0.250000 0.125000
vt 0.166667 0.375000
vt 0.250000 0.375000
vt 0.166667 0.625000
vt 0.250000 0.625000
vt 0.287109 0.775391
vt 0.245443 0.900391
vt 0.203776 0.775391
vt 0.749352 0.308489
vt 0.791018 0.433489
vt 0.707685 0.433489
vt 0.835599 0.523634
vt 0.752266 0.398634
vt 0.835599 0.398634
vt 0.721637 0.379085
vt 0.804970 0.379085
vt 0.804970 0.754085
vt 0.721637 0.629085
vt 0.804970 0.629085
vt 0.628625 0.346383
vt 0.586958 0.471383
vt 0.545292 0.346383
vt 0.168405 0.108514
vt 0.210072 0.233514
vt 0.126739 0.233514
vt 0.166667 0.250000
vt 0.083333 0.375000
vt 0.083333 0.250000
vt 0.083333 0.500000
vt 0.166667 0.500000
vt 0.166667 0.750000
vt 0.083333 0.875000
vt 0.083333 0.750000
vt 0.642577 0.408120
vt 0.559244 0.283120
vt 0.642577 0.283120
vt 0.701484 0.672072
vt 0.618151 0.547072
vt 0.701484 0.547072
vt 0.777444 0.701944
vt 0.694111 0.576944
vt 0.777444 0.576944
vt 0.864257 0.238964
vt 0.780924 0.363964
vt 0.780924 0.238964
vt 0.748367 0.607948
vt 0.665034 0.482948
vt 0.748367 0.482948
vt 0.839829 0.601181
vt 0.756496 0.726181
vt 0.756496 0.601181
vt 0.275558 0.270153
vt 0.192224 0.145153
vt 0.275558 0.145153
vt 0.320513 0.512402
vt 0.237180 0.387402
vt 0.320513 0.387402
vt 0.215100 0.700394
vt 0.131767 0.575394
vt 0.215100 0.575394
vt 0.120443 0.775391
vt 0.078776 0.900391
vt 0.037109 0.775391
vt 0.582685 0.308489
vt 0.624352 0.433489
vt 0.541018 0.433489
vt 0.953125 0.236328
vt 0.869792 0.111328
vt 0.953125 0.111328
vt 0.941406 0.460938
vt 0.858073 0.335938
vt 0.941406 0.335938
vt 0.794922 0.453125
vt 0.711589 0.328125
vt 0.794922 0.328125
vt 0.949219 0.736328
vt 0.907552 0.861328
vt 0.865885 0.736328
vt 0.425066 0.337943
vt 0.466733 0.462943
vt 0.383399 0.462943
vt 0.465182 0.387967
vt 0.381849 0.512967
vt 0.381849 0.387967
vt 0.307062 0.635851
vt 0.223729 0.510851
vt 0.307062 0.510851
vt 0.352018 0.832160
vt 0.268685 0.957160
vt 0.268685 0.832160
vt 0.381849 0.637967
vt 0.298516 0.512967
vt 0.185351 0.707160
vt 0.268685 0.707160
vt 0.453158 0.555660
vt 0.411491 0.680660
vt 0.369825 0.555660
vt 0.894531 0.107422
vt 0.936198 0.232422
vt 0.852865 0.232422
vt 0.967448 0.226562
vt 0.884115 0.351562
vt 0.884115 0.226562
vt 0.916667 0.500000
vt 0.833333 0.625000
vt 0.833333 0.500000
vt 0.916667 0.750000
vt 0.833333 0.875000
vt 0.833333 0.750000
vt 0.446957 0.401919
vt 0.363624 0.276919
vt 0.446957 0.276919
vt 0.258399 0.337943
vt 0.300066 0.462943
vt 0.216733 0.462943
vt 0.298516 0.387967
vt 0.215182 0.512967
vt 0.215182 0.387967
vt 0.102018 0.582160
vt 0.185351 0.582160
vt 0.185351 0.832160
vt 0.102018 0.957160
vt 0.833333 0.250000
vt 0.750000 0.125000
vt 0.833333 0.125000
vt 0.750000 0.375000
vt 0.833333 0.375000
vt 0.750000 0.625000
vt 0.782552 0.736328
vt 0.740885 0.861328
vt 0.699219 0.736328
vt 0.800781 0.351562
vt 0.666667 0.875000
vt 0.196957 0.401919
vt 0.018685 0.832160
vt 0.194234 0.879651
vt 0.583333 0.250000
vt 0.583333 0.500000
vt 0.048516 0.512967
vt 0.113624 0.401919
vt 0.110901 0.754651
vt 0.550781 0.351562
vt 0.568359 0.443359
vt 0.791814 0.681791
vt 0.372884 0.371900
vt 0.362033 0.573844
vt 0.416667 0.875000
vt 0.892577 0.408120
vt 0.746858 0.634867
vt 0.797640 0.486430
vt 0.748786 0.626550
vt 0.822818 0.726181
vt 0.333333 0.875000
vt 0.725910 0.408120
vt 0.784818 0.672072
vt 0.752266 0.523634
vt 0.721637 0.504085
vt 0.721637 0.754085
vt 0.083333 0.625000
vt 0.166667 0.875000
vt 0.559244 0.408120
vt 0.618151 0.672072
vt 0.694111 0.701944
vt 0.864257 0.363964
vt 0.665034 0.607948
vt 0.839829 0.726181
vt 0.192224 0.270153
vt 0.237180 0.512402
vt 0.131767 0.700394
vt 0.869792 0.236328
vt 0.858073 0.460938
vt 0.711589 0.453125
vt 0.465182 0.512967
vt 0.223729 0.635851
vt 0.352018 0.957160
vt 0.298516 0.637967
vt 0.967448 0.351562
vt 0.916667 0.625000
vt 0.916667 0.875000
vt 0.363624 0.401919
vt 0.185351 0.957160
vt 0.750000 0.250000
s 1
usemtl Chess
f 81/1/81 51/2/51 2/3/2
f 59/4/59 86/5/86 8/6/8
f 85/7/85 6/8/6 7/9/7
f 83/10/83 4/11/4 5/12/5
f 81/13/81 3/14/3 1/15/1
f 85/16/85 8/17/8 86/18/86
f 83/19/83 6/20/6 84/21/84
f 1/22/1 4/23/4 82/24/82
f 4/25/4 12/26/12 5/27/5
f 2/28/2 10/29/10 3/30/3
f 7/31/7 15/32/15 8/33/8
f 5/12/5 13/34/13 6/35/6
f 3/14/3 11/36/11 4/11/4
f 2/37/2 51/38/51 9/39/9
f 59/40/59 8/41/8 15/42/15
f 6/43/6 14/44/14 7/45/7
f 15/46/15 21/47/21 22/48/22
f 13/49/13 19/50/19 20/51/20
f 10/29/10 18/52/18 11/53/11
f 9/54/9 51/55/51 16/56/16
f 59/57/59 15/58/15 22/59/22
f 13/60/13 21/61/21 14/62/14
f 11/63/11 19/64/19 12/65/12
f 9/66/9 17/67/17 10/68/10
f 17/69/17 25/70/25 18/71/18
f 16/72/16 51/73/51 23/74/23
f 59/75/59 22/76/22 29/77/29
f 21/78/21 27/79/27 28/80/28
f 19/81/19 25/82/25 26/83/26
f 16/84/16 24/85/24 17/67/17
f 21/86/21 29/87/29 22/88/22
f 19/89/19 27/90/27 20/91/20
f 59/92/59 29/93/29 36/94/36
f 28/95/28 34/96/34 35/97/35
f 25/98/25 33/99/33 26/100/26
f 24/101/24 30/102/30 31/103/31
f 28/104/28 36/105/36 29/106/29
f 26/107/26 34/108/34 27/109/27
f 24/85/24 32/110/32 25/111/25
f 23/112/23 51/113/51 30/114/30
f 31/115/31 37/116/37 38/117/38
f 35/118/35 43/119/43 36/120/36
f 33/121/33 41/122/41 34/123/34
f 31/124/31 39/125/39 32/126/32
f 30/127/30 51/128/51 37/129/37
f 59/130/59 36/131/36 43/132/43
f 34/108/34 42/133/42 35/134/35
f 32/110/32 40/135/40 33/136/33
f 42/133/42 50/137/50 43/138/43
f 40/135/40 48/139/48 41/140/41
f 38/117/38 46/141/46 39/142/39
f 37/143/37 51/144/51 44/145/44
f 59/146/59 43/147/43 50/148/50
f 41/149/41 49/150/49 42/151/42
f 39/125/39 47/152/47 40/153/40
f 37/154/37 45/155/45 38/156/38
f 44/157/44 51/158/51 52/159/52
f 59/160/59 50/161/50 58/162/58
f 49/163/49 56/164/56 57/165/57
f 46/141/46 55/166/55 47/167/47
f 45/168/45 52/169/52 53/170/53
f 49/171/49 58/172/58 50/173/50
f 47/174/47 56/175/56 48/176/48
f 45/177/45 54/178/54 46/179/46
f 57/180/57 64/181/64 65/182/65
f 54/183/54 63/184/63 55/185/55
f 53/186/53 60/187/60 61/188/61
f 57/189/57 66/190/66 58/191/58
f 55/192/55 64/193/64 56/194/56
f 53/195/53 62/196/62 54/197/54
f 52/198/52 51/199/51 60/200/60
f 59/201/59 58/202/58 66/203/66
f 65/204/65 73/205/73 66/206/66
f 63/207/63 71/208/71 64/209/64
f 61/210/61 69/211/69 62/212/62
f 60/213/60 51/214/51 67/215/67
f 59/216/59 66/217/66 73/218/73
f 65/219/65 71/220/71 72/221/72
f 62/222/62 70/223/70 63/224/63
f 61/225/61 67/226/67 68/227/68
f 70/228/70 78/229/78 71/220/71
f 68/227/68 76/230/76 69/231/69
f 67/232/67 51/233/51 74/234/74
f 59/235/59 73/236/73 80/237/80
f 72/238/72 78/239/78 79/240/79
f 70/241/70 76/242/76 77/243/77
f 68/244/68 74/245/74 75/246/75
f 72/247/72 80/248/80 73/249/73
f 59/250/59 80/251/80 86/252/86
f 79/253/79 84/254/84 85/255/85
f 76/230/76 83/256/83 77/257/77
f 75/258/75 81/259/81 1/22/1
f 79/260/79 86/261/86 80/262/80
f 77/243/77 84/263/84 78/264/78
f 75/246/75 82/265/82 76/242/76
f 74/266/74 51/267/51 81/268/81
f 85/7/85 84/269/84 6/8/6
f 83/10/83 82/265/82 4/11/4
f 81/13/81 2/270/2 3/14/3
f 85/16/85 7/271/7 8/17/8
f 83/19/83 5/27/5 6/20/6
f 1/22/1 3/272/3 4/23/4
f 4/25/4 11/53/11 12/26/12
f 2/28/2 9/273/9 10/29/10
f 7/31/7 14/274/14 15/32/15
f 5/12/5 12/275/12 13/34/13
f 3/14/3 10/68/10 11/36/11
f 6/43/6 13/276/13 14/44/14
f 15/46/15 14/277/14 21/47/21
f 13/49/13 12/26/12 19/50/19
f 10/29/10 17/278/17 18/52/18
f 13/60/13 20/279/20 21/61/21
f 11/63/11 18/280/18 19/64/19
f 9/66/9 16/84/16 17/67/17
f 17/69/17 24/281/24 25/70/25
f 21/78/21 20/282/20 27/79/27
f 19/81/19 18/283/18 25/82/25
f 16/84/16 23/284/23 24/85/24
f 21/86/21 28/285/28 29/87/29
f 19/89/19 26/286/26 27/90/27
f 28/95/28 27/287/27 34/96/34
f 25/98/25 32/288/32 33/99/33
f 24/101/24 23/289/23 30/102/30
f 28/104/28 35/134/35 36/105/36
f 26/107/26 33/136/33 34/108/34
f 24/85/24 31/115/31 32/110/32
f 31/115/31 30/290/30 37/116/37
f 35/118/35 42/291/42 43/119/43
f 33/121/33 40/292/40 41/122/41
f 31/124/31 38/156/38 39/125/39
f 34/108/34 41/140/41 42/133/42
f 32/110/32 39/142/39 40/135/40
f 42/133/42 49/163/49 50/137/50
f 40/135/40 47/167/47 48/139/48
f 38/117/38 45/168/45 46/141/46
f 41/149/41 48/293/48 49/150/49
f 39/125/39 46/294/46 47/152/47
f 37/154/37 44/295/44 45/155/45
f 49/163/49 48/139/48 56/164/56
f 46/141/46 54/296/54 55/166/55
f 45/168/45 44/297/44 52/169/52
f 49/171/49 57/298/57 58/172/58
f 47/174/47 55/299/55 56/175/56
f 45/177/45 53/300/53 54/178/54
f 57/180/57 56/301/56 64/181/64
f 54/183/54 62/302/62 63/184/63
f 53/186/53 52/303/52 60/187/60
f 57/189/57 65/304/65 66/190/66
f 55/192/55 63/305/63 64/193/64
f 53/195/53 61/306/61 62/196/62
f 65/204/65 72/307/72 73/205/73
f 63/207/63 70/308/70 71/208/71
f 61/210/61 68/309/68 69/211/69
f 65/219/65 64/310/64 71/220/71
f 62/222/62 69/311/69 70/223/70
f 61/225/61 60/312/60 67/226/67
f 70/228/70 77/313/77 78/229/78
f 68/227/68 75/258/75 76/230/76
f 72/238/72 71/314/71 78/239/78
f 70/241/70 69/315/69 76/242/76
f 68/244/68 67/316/67 74/245/74
f 72/247/72 79/317/79 80/248/80
f 79/253/79 78/229/78 84/254/84
f 76/230/76 82/24/82 83/256/83
f 75/258/75 74/318/74 81/259/81
f 79/260/79 85/319/85 86/261/86
f 77/243/77 83/10/83 84/263/84
f 75/246/75 1/15/1 82/265/82
