v 0.000000 -1.000000 0.000000
v 0.723607 -0.447220 0.525725
v -0.276388 -0.447220 0.850649
v -0.894426 -0.447216 0.000000
v -0.276388 -0.447220 -0.850649
v 0.723607 -0.447220 -0.525725
v 0.276388 0.447220 0.850649
v -0.723607 0.447220 0.525725
v -0.723607 0.447220 -0.525725
v 0.276388 0.447220 -0.850649
v 0.894426 0.447216 0.000000
v 0.000000 1.000000 0.000000
v -0.162456 -0.850654 0.499995
v 0.425323 -0.850654 0.309011
v 0.262869 -0.525738 0.809012
v 0.850648 -0.525736 0.000000
v 0.425323 -0.850654 -0.309011
v -0.525730 -0.850652 0.000000
v -0.688189 -0.525736 0.499997
v -0.162456 -0.850654 -0.499995
v -0.688189 -0.525736 -0.499997
v 0.262869 -0.525738 -0.809012
v 0.951058 0.000000 0.309013
v 0.951058 0.000000 -0.309013
v 0.000000 0.000000 1.000000
v 0.587786 0.000000 0.809017
v -0.951058 0.000000 0.309013
v -0.587786 0.000000 0.809017
v -0.587786 0.000000 -0.809017
v -0.951058 0.000000 -0.309013
v 0.587786 0.000000 -0.809017
v 0.000000 0.000000 -1.000000
v 0.688189 0.525736 0.499997
v -0.262869 0.525738 0.809012
v -0.850648 0.525736 0.000000
v -0.262869 0.525738 -0.809012
v 0.688189 0.525736 -0.499997
v 0.162456 0.850654 0.499995
v 0.525730 0.850652 0.000000
v -0.425323 0.850654 0.309011
v -0.425323 0.850654 -0.309011
v 0.162456 0.850654 -0.499995

vn 0.1024 -0.9435 0.3151
vn 0.7002 -0.6617 0.2680
vn -0.2680 -0.9435 0.1947
vn -0.2680 -0.9435 -0.1947
vn 0.1024 -0.9435 -0.3151
vn 0.9050 -0.3304 0.2680
vn 0.0247 -0.3304 0.9435
vn -0.8897 -0.3304 0.3151
vn -0.5746 -0.3304 -0.7488
vn 0.5346 -0.3304 -0.7779
vn 0.8026 -0.1256 0.5831
vn -0.3066 -0.1256 0.9435
vn -0.9921 -0.1256 -0.0000
vn -0.3066 -0.1256 -0.9435
vn 0.8026 -0.1256 -0.5831
vn 0.4089 0.6617 0.6284
vn -0.4713 0.6617 0.5831
vn -0.7002 0.6617 -0.2680
vn 0.0385 0.6617 -0.7488
vn 0.7240 0.6617 -0.1947
vn 0.2680 0.9435 -0.1947
vn 0.4911 0.7947 -0.3568
vn 0.4089 0.6617 -0.6284
vn -0.1024 0.9435 -0.3151
vn -0.1876 0.7947 -0.5773
vn -0.4713 0.6617 -0.5831
vn -0.3313 0.9435 -0.0000
vn -0.6071 0.7947 -0.0000
vn -0.7002 0.6617 0.2680
vn -0.1024 0.9435 0.3151
vn -0.1876 0.7947 0.5773
vn 0.0385 0.6617 0.7488
vn 0.2680 0.9435 0.1947
vn 0.4911 0.7947 0.3568
vn 0.7240 0.6617 0.1947
vn 0.8897 0.3304 -0.3151
vn 0.7947 0.1876 -0.5773
vn 0.5746 0.3304 -0.7488
vn -0.0247 0.3304 -0.9435
vn -0.3035 0.1876 -0.9342
vn -0.5346 0.3304 -0.7779
vn -0.9050 0.3304 -0.2680
vn -0.9822 0.1876 -0.0000
vn -0.9050 0.3304 0.2680
vn -0.5346 0.3304 0.7779
vn -0.3035 0.1876 0.9342
vn -0.0247 0.3304 0.9435
vn 0.5746 0.3304 0.7488
vn 0.7947 0.1876 0.5773
vn 0.8897 0.3304 0.3151
vn 0.3066 0.1256 -0.9435
vn 0.3035 -0.1876 -0.9342
vn 0.0247 -0.3304 -0.9435
vn -0.8026 0.1256 -0.5831
vn -0.7947 -0.1876 -0.5773
vn -0.8897 -0.3304 -0.3151
vn -0.8026 0.1256 0.5831
vn -0.7947 -0.1876 0.5773
vn -0.5746 -0.3304 0.7488
vn 0.3066 0.1256 0.9435
vn 0.3035 -0.1876 0.9342
vn 0.5346 -0.3304 0.7779
vn 0.9921 0.1256 -0.0000
vn 0.9822 -0.1876 -0.0000
vn 0.9050 -0.3304 -0.2680
vn 0.4713 -0.6617 -0.5831
vn 0.1876 -0.7947 -0.5773
vn -0.0385 -0.6617 -0.7488
vn -0.4089 -0.6617 -0.6284
vn -0.4911 -0.7947 -0.3568
vn -0.7240 -0.6617 -0.1947
vn -0.7240 -0.6617 0.1947
vn -0.4911 -0.7947 0.3568
vn -0.4089 -0.6617 0.6284
vn 0.7002 -0.6617 -0.2680
vn 0.6071 -0.7947 -0.0000
vn 0.3313 -0.9435 -0.0000
vn -0.0385 -0.6617 0.7488
vn 0.1876 -0.7947 0.5773
vn 0.4713 -0.6617 0.5831

vt 0.180269 0.562721
vt 0.225723 0.641452
vt 0.134814 0.641452
vt 0.272728 0.157461
vt 0.318182 0.078731
vt 0.363637 0.157461
vt 0.352571 0.389099
vt 0.398025 0.467830
vt 0.307116 0.467830
vt 0.246712 0.311589
vt 0.292167 0.390320
vt 0.201258 0.390320
vt 0.137753 0.390649
vt 0.183208 0.469380
vt 0.092299 0.469380
vt 0.585868 0.245822
vt 0.676777 0.245822
vt 0.631322 0.324552
vt 0.622627 0.199316
vt 0.713536 0.199316
vt 0.668082 0.278046
vt 0.720520 0.445798
vt 0.811429 0.445798
vt 0.765974 0.524527
vt 0.636364 0.157461
vt 0.727273 0.157461
vt 0.681818 0.236191
vt 0.767686 0.245822
vt 0.858595 0.245822
vt 0.813140 0.324552
vt 0.318182 0.236191
vt 0.227273 0.236191
vt 0.090910 0.157461
vt 0.136365 0.236191
vt 0.045455 0.236191
vt 0.300416 0.422545
vt 0.345871 0.501275
vt 0.254962 0.501275
vt 0.213160 0.568263
vt 0.258615 0.646993
vt 0.167706 0.646993
vt 0.454546 0.157461
vt 0.500000 0.236191
vt 0.409092 0.236191
vt 0.742990 0.339724
vt 0.833899 0.339724
vt 0.788445 0.418455
vt 0.666584 0.254463
vt 0.757494 0.254463
vt 0.712039 0.333194
vt 0.779980 0.300969
vt 0.870889 0.300969
vt 0.825434 0.379700
vt 0.545455 0.314921
vt 0.636364 0.314921
vt 0.590909 0.393651
vt 0.686078 0.283917
vt 0.776987 0.283917
vt 0.731532 0.362648
vt 0.881901 0.393651
vt 0.972810 0.393651
vt 0.927356 0.472382
vt 0.409092 0.393651
vt 0.454546 0.314921
vt 0.500000 0.393651
vt 0.660722 0.296319
vt 0.751631 0.296319
vt 0.706177 0.375049
vt 0.681818 0.393651
vt 0.636364 0.472382
vt 0.122750 0.393651
vt 0.168205 0.314921
vt 0.213659 0.393651
vt 0.727273 0.314921
vt 0.777378 0.393651
vt 0.868287 0.393651
vt 0.822833 0.472382
vt 0.287516 0.393651
vt 0.332971 0.314921
vt 0.378425 0.393651
vt 0.720520 0.583105
vt 0.811429 0.583105
vt 0.765974 0.661835
vt 0.518265 0.393651
vt 0.609174 0.393651
vt 0.563720 0.472382
vt 0.045455 0.393651
vt 0.090910 0.314921
vt 0.136365 0.393651
vt 0.848403 0.254463
vt 0.802949 0.333194
vt 0.700083 0.393651
vt 0.790992 0.393651
vt 0.745538 0.472382
vt 0.227273 0.393651
vt 0.272728 0.314921
vt 0.318182 0.393651
vt 0.717634 0.290118
vt 0.808543 0.290118
vt 0.763089 0.368848
vt 0.363637 0.314921
vt 0.778038 0.318351
vt 0.868947 0.318351
vt 0.823493 0.397081
vt 0.315527 0.225340
vt 0.360982 0.304070
vt 0.270073 0.304070
vt 0.213160 0.725723
vt 0.122251 0.725723
vt 0.590909 0.236191
vt 0.304069 0.725723
vt 0.349524 0.646993
vt 0.394978 0.725723
vt 0.772727 0.236191
vt 0.863636 0.236191
vt 0.818182 0.314921
vt 0.186201 0.546230
vt 0.231655 0.624960
vt 0.140746 0.624960
vt 0.312089 0.397411
vt 0.357543 0.476141
vt 0.266634 0.476141
vt 0.566321 0.305950
vt 0.657230 0.305950
vt 0.611775 0.384680
vt 0.181819 0.314921
vt 0.748139 0.305950
vt 0.839048 0.305950
vt 0.793594 0.384680
vt 0.076797 0.646993
vt 0.122251 0.568263
vt 0.545455 0.157461
vt 0.304069 0.568263
vt 0.818182 0.157461
vt 0.954545 0.236191
vt 0.909091 0.314921
vt 0.218755 0.437717
vt 0.264209 0.358986
vt 0.309664 0.437717
vt 0.805228 0.369838
vt 0.896137 0.369838
vt 0.850682 0.448568
vt 0.702685 0.384680
vt 0.181819 0.157461
vt 0.804445 0.199316
vt 0.758991 0.278046
vt 0.929957 0.305950
vt 0.884503 0.384680
vt 0.722231 0.324552
vt 0.315527 0.416673
vt 0.360982 0.495404
vt 0.270073 0.495404
vt 0.775935 0.396521
vt 0.866844 0.396521
vt 0.821390 0.475251
vt 0.212662 0.624400
vt 0.258116 0.703130
vt 0.167207 0.703130
vt 0.309771 0.376368
vt 0.355226 0.455099
vt 0.264317 0.455099
vt 0.681818 0.078731
vt 0.772727 0.078731
vt 0.349524 0.489533
vt 0.394978 0.568263
vt 0.252859 0.270955
vt 0.298314 0.349685
vt 0.207405 0.349685
vt 0.671412 0.329862
vt 0.762321 0.329862
vt 0.716867 0.408593
vt 0.343768 0.270955
vt 0.389223 0.349685
vt 0.409092 0.078731
vt 0.842648 0.408593
vt 0.797193 0.329862
vt 0.888102 0.329862
vt 0.316632 0.641452
vt 0.362087 0.562721
vt 0.407541 0.641452
vt 0.136365 0.078731
vt 0.615375 0.329862
vt 0.706284 0.329862
vt 0.660830 0.408593
vt 0.227273 0.078731

f 1/1/1 14/2/1 13/3/1
f 2/4/2 14/5/2 16/6/2
f 1/7/3 13/8/3 18/9/3
f 1/10/4 18/11/4 20/12/4
f 1/13/5 20/14/5 17/15/5
f 2/16/6 16/17/6 23/18/6
f 3/19/7 15/20/7 25/21/7
f 4/22/8 19/23/8 27/24/8
f 5/25/9 21/26/9 29/27/9
f 6/28/10 22/29/10 31/30/10
f 2/4/11 23/31/11 26/32/11
f 3/33/12 25/34/12 28/35/12
f 4/36/13 27/37/13 30/38/13
f 5/39/14 29/40/14 32/41/14
f 6/42/15 31/43/15 24/44/15
f 7/45/16 33/46/16 38/47/16
f 8/48/17 34/49/17 40/50/17
f 9/51/18 35/52/18 41/53/18
f 10/54/19 36/55/19 42/56/19
f 11/57/20 37/58/20 39/59/20
f 39/60/21 42/61/21 12/62/21
f 39/63/22 37/64/22 42/65/22
f 37/66/23 10/67/23 42/68/23
f 42/56/24 41/69/24 12/70/24
f 42/71/25 36/72/25 41/73/25
f 36/55/26 9/74/26 41/69/26
f 41/75/27 40/76/27 12/77/27
f 41/78/28 35/79/28 40/80/28
f 35/81/29 8/82/29 40/83/29
f 40/84/30 38/85/30 12/86/30
f 40/87/31 34/88/31 38/89/31
f 34/49/32 7/90/32 38/91/32
f 38/92/33 39/93/33 12/94/33
f 38/95/34 33/96/34 39/97/34
f 33/98/35 11/99/35 39/100/35
f 24/44/36 37/64/36 11/101/36
f 24/102/37 31/103/37 37/104/37
f 31/105/38 10/106/38 37/107/38
f 32/41/39 36/108/39 10/109/39
f 32/110/40 29/27/40 36/55/40
f 29/40/41 9/111/41 36/108/41
f 30/112/42 35/113/42 9/111/42
f 30/114/43 27/115/43 35/116/43
f 27/117/44 8/118/44 35/119/44
f 28/120/45 34/121/45 8/122/45
f 28/123/46 25/124/46 34/125/46
f 25/34/47 7/126/47 34/88/47
f 26/32/48 33/96/48 7/126/48
f 26/127/49 23/128/49 33/129/49
f 23/31/50 11/101/50 33/96/50
f 31/43/51 32/110/51 10/54/51
f 31/130/52 22/131/52 32/41/52
f 22/132/53 5/25/53 32/110/53
f 29/27/54 30/114/54 9/74/54
f 29/40/55 21/133/55 30/112/55
f 21/26/56 4/134/56 30/114/56
f 27/115/57 28/135/57 8/136/57
f 27/137/58 19/138/58 28/139/58
f 19/140/59 3/141/59 28/142/59
f 25/124/60 26/127/60 7/143/60
f 25/34/61 15/144/61 26/32/61
f 15/20/62 2/145/62 26/146/62
f 23/128/63 24/147/63 11/148/63
f 23/31/64 16/6/64 24/44/64
f 16/17/65 6/28/65 24/149/65
f 17/150/66 22/151/66 6/152/66
f 17/153/67 20/154/67 22/155/67
f 20/156/68 5/157/68 22/158/68
f 20/159/69 21/160/69 5/161/69
f 20/162/70 18/163/70 21/26/70
f 18/164/71 4/165/71 21/133/71
f 18/166/72 19/167/72 4/168/72
f 18/169/73 13/170/73 19/171/73
f 13/172/74 3/173/74 19/167/74
f 16/6/75 17/174/75 6/42/75
f 16/175/76 14/176/76 17/177/76
f 14/178/77 1/179/77 17/180/77
f 13/181/78 15/144/78 3/33/78
f 13/182/79 14/183/79 15/184/79
f 14/185/80 2/4/80 15/144/80